# xmcd
#
# Track frame offsets: 
#        150
#        13910
#        26330
#        40712
#        55152
#        70782
#        86335
#        101347
#        116380
#        131132
#        145152
#        159325
#        174362
#        189842
#        204697
#        218307
#        230030
#        243255
#        257955
#        271872
#        286090
#        299752
#
# Disc length: 4166 seconds
#
# Revision: 2
# Processed by: cddbd v1.5.2PL0 Copyright (c) Steve Scherf et al.
# Submitted via: ExactAudioCopyFreeDBPlugin 1.0
#
DISCID=30104416
DTITLE=Peetie Wheatstraw - Complete Recorded Works Vol. 1 (1930-1932)
DYEAR=1994
DGENRE=Blues
TTITLE0=Tennessee Peaches Blues
TTITLE1=Four O'Clock in the Morning
TTITLE2=Don't Feel Welcome Blues
TTITLE3=Strange Man Blues
TTITLE4=School Days
TTITLE5=So Soon
TTITLE6=So Long Blues
TTITLE7=Mama's Advice
TTITLE8=Ain't It a Pity and a Shame?
TTITLE9=Don't Hang My Clothes on No Barb Wire Line
TTITLE10=C and A Blues
TTITLE11=Six Weeks Old Blues
TTITLE12=Devil's Son-in-Law
TTITLE13=Pete Wheatstraw
TTITLE14=Creeping Blues
TTITLE15=Ice and Snow Blues
TTITLE16=The Break I'm Gettin'
TTITLE17=Hog-Love Blues
TTITLE18=Police Station Blues
TTITLE19=All Alone Blues
TTITLE20=Can't See Blues
TTITLE21=Sleepless Night Blues
EXTD=
EXTT0=
EXTT1=
EXTT2=
EXTT3=
EXTT4=
EXTT5=
EXTT6=
EXTT7=
EXTT8=
EXTT9=
EXTT10=
EXTT11=
EXTT12=
EXTT13=
EXTT14=
EXTT15=
EXTT16=
EXTT17=
EXTT18=
EXTT19=
EXTT20=
EXTT21=
PLAYORDER=
